<svg xmlns="http://www.w3.org/2000/svg" width="20" height="27.821" viewBox="0 0 20 27.821"><defs><style>.ta{fill:#ccc;}.tb{fill:#c4c4c4;}.tc{fill:#fff;}</style></defs><g transform="translate(17027 -11942)"><g transform="translate(-17027 11942)"><path class="ta" d="M86.412,19.5l1.272-2.064,2.3-.783.254-2.411,1.727-1.7-.821-2.282.821-2.283-1.727-1.7-.254-2.411-2.3-.783L86.413,1.014,84.006,1.3,81.962,0,79.918,1.3l-2.406-.291L76.24,3.078l-2.3.783-.254,2.411-1.727,1.7.821,2.283-.821,2.283,1.727,1.7.254,2.411,2.3.783L77.512,19.5l2.406-.29,2.044,1.3,2.044-1.3ZM74.929,10.256a7.033,7.033,0,1,1,7.033,7.033A7.041,7.041,0,0,1,74.929,10.256Z" transform="translate(-71.962 0)"/><path class="tb" d="M161.992,89.333a5.4,5.4,0,1,0,5.4,5.4A5.408,5.408,0,0,0,161.992,89.333Z" transform="translate(-151.992 -84.479)"/><path class="ta" d="M87.618,344.819l-2.862.346-1.512-2.454-.514-.175-2.218,6.932,3.992-.22,3.124,2.5L89.465,346Z" transform="translate(-80.046 -323.923)"/><path class="ta" d="M272.923,342.71l-1.512,2.454-2.862-.346L266.7,346l1.838,5.745,3.124-2.5,3.992.22-2.218-6.932Z" transform="translate(-256.119 -323.923)"/><path class="tc" d="M104.84,133.771a.922.922,0,0,0,0,1.3l1.315,1.315a.921.921,0,0,0,1.3,0l2.87-2.87a.921.921,0,0,0-1.3-1.3l-2.219,2.219-.664-.664a.922.922,0,0,0-1.3,0Zm2.054,2.429c.08,0,.175-.182.232-.238v.093l1.158-1.231,1.733-1.732c.124-.124.48-.363,0-.4s.007.275-.117.4h.117l-2.987,2.87a.317.317,0,0,1-.225.093c-.085,0-.128-.142-.188-.2l-1.352-1.206a.319.319,0,0,1,0-.45c.062-.062-.355-.1-.273-.1s.093.572.155.634l.912.711A7.369,7.369,0,0,0,106.894,136.2Zm.124-.238" transform="translate(-97.583 -123.962)"/></g></g></svg>